<?xml version="1.0" encoding="utf-8" standalone="no"?>
<!DOCTYPE svg PUBLIC "-//W3C//DTD SVG 1.1//EN"
  "http://www.w3.org/Graphics/SVG/1.1/DTD/svg11.dtd">
<!-- Created with matplotlib (https://matplotlib.org/) -->
<svg height="269.424pt" version="1.1" viewBox="0 0 405 269.424" width="405pt" xmlns="http://www.w3.org/2000/svg" xmlns:xlink="http://www.w3.org/1999/xlink">
 <defs>
  <style type="text/css">
*{stroke-linecap:butt;stroke-linejoin:round;}
  </style>
 </defs>
 <g id="figure_1">
  <g id="patch_1">
   <path d="M 0 269.424 
L 405 269.424 
L 405 0 
L 0 0 
z
" style="fill:#ffffff;"/>
  </g>
  <g id="patch_2">
   <path d="M 7.2 262.224 
L 397.8 262.224 
L 397.8 7.2 
L 7.2 7.2 
z
" style="fill:#ffffff;"/>
  </g>
  <g id="pane3d_1">
   <g id="patch_3">
    <path d="M 207.778378 141.735182 
L 359.346993 191.865884 
L 367.452267 67.424925 
L 207.778378 22.427424 
" style="fill:#f2f2f2;opacity:0.5;stroke:#f2f2f2;stroke-linejoin:miter;"/>
   </g>
  </g>
  <g id="pane3d_2">
   <g id="patch_4">
    <path d="M 207.778378 141.735182 
L 56.209763 191.865884 
L 48.10449 67.424925 
L 207.778378 22.427424 
" style="fill:#e6e6e6;opacity:0.5;stroke:#e6e6e6;stroke-linejoin:miter;"/>
   </g>
  </g>
  <g id="pane3d_3">
   <g id="patch_5">
    <path d="M 207.778378 141.735182 
L 56.209763 191.865884 
L 207.778378 248.643025 
L 359.346993 191.865884 
" style="fill:#ececec;opacity:0.5;stroke:#ececec;stroke-linejoin:miter;"/>
   </g>
  </g>
  <g id="axis3d_1">
   <g id="line2d_1">
    <path d="M 359.346993 191.865884 
L 207.778378 248.643025 
" style="fill:none;stroke:#000000;stroke-linecap:square;stroke-width:0.8;"/>
   </g>
   <g id="text_1">
    <!-- F1 -->
    <defs>
     <path d="M 45.703125 61.328125 
L 13.671875 61.328125 
L 13.671875 39.453125 
L 37.890625 39.453125 
L 37.890625 32.03125 
L 13.671875 32.03125 
L 13.671875 1.953125 
L 4.6875 1.953125 
L 4.6875 68.75 
L 45.703125 68.75 
z
" id="SimHei-70"/>
     <path d="M 21.875 56.25 
Q 16.796875 51.171875 8.984375 46.484375 
L 8.984375 53.90625 
Q 18.75 60.546875 25 69.53125 
L 29.6875 69.53125 
L 29.6875 2.34375 
L 21.875 2.34375 
z
" id="SimHei-49"/>
    </defs>
    <g transform="translate(304.432273 248.549816)scale(0.1 -0.1)">
     <use xlink:href="#SimHei-70"/>
     <use x="50" xlink:href="#SimHei-49"/>
    </g>
   </g>
   <g id="Line3DCollection_1">
    <path d="M 350.265434 195.267809 
L 198.6637 144.749824 
L 198.204449 25.125441 
" style="fill:none;stroke:#b0b0b0;stroke-width:0.8;"/>
    <path d="M 325.020467 204.724496 
L 173.348917 153.122586 
L 171.595296 32.624134 
" style="fill:none;stroke:#b0b0b0;stroke-width:0.8;"/>
    <path d="M 299.214055 214.391499 
L 147.504903 161.670388 
L 144.401208 40.287666 
" style="fill:none;stroke:#b0b0b0;stroke-width:0.8;"/>
    <path d="M 272.82726 224.275912 
L 121.114889 170.398778 
L 116.602684 48.121534 
" style="fill:none;stroke:#b0b0b0;stroke-width:0.8;"/>
    <path d="M 245.840278 234.385153 
L 94.161386 179.313539 
L 88.179344 56.13148 
" style="fill:none;stroke:#b0b0b0;stroke-width:0.8;"/>
    <path d="M 218.232396 244.726982 
L 66.626152 188.420706 
L 59.109885 64.323509 
" style="fill:none;stroke:#b0b0b0;stroke-width:0.8;"/>
   </g>
   <g id="xtick_1">
    <g id="line2d_2">
     <path d="M 348.977563 194.838654 
L 352.845037 196.127406 
" style="fill:none;stroke:#000000;stroke-linecap:square;stroke-width:0.8;"/>
    </g>
    <g id="text_2">
     <!-- 0.0 -->
     <defs>
      <path d="M 3.125 29.296875 
Q 3.90625 50 6.4375 56.046875 
Q 8.984375 62.109375 13.671875 66.015625 
Q 18.359375 69.921875 25.1875 69.921875 
Q 32.03125 69.921875 37.109375 64.25 
Q 42.1875 58.59375 43.75 50 
Q 45.3125 41.40625 44.71875 30.265625 
Q 44.140625 19.140625 40.8125 12.109375 
Q 37.5 5.078125 30.859375 2.34375 
Q 24.21875 -0.390625 17.578125 2.921875 
Q 10.9375 6.25 8.203125 11.71875 
Q 5.46875 17.1875 4.296875 23.234375 
Q 3.125 29.296875 3.90625 50 
z
M 12.890625 52.734375 
Q 10.546875 31.25 12.5 22.84375 
Q 14.453125 14.453125 18.9375 10.9375 
Q 23.4375 7.421875 28.125 9.5625 
Q 32.8125 11.71875 34.953125 18.15625 
Q 37.109375 24.609375 37.109375 32.21875 
Q 37.109375 39.84375 36.515625 46.09375 
Q 35.9375 52.34375 33 57.421875 
Q 30.078125 62.5 25.1875 62.6875 
Q 20.3125 62.890625 16.59375 57.8125 
Q 12.890625 52.734375 10.546875 31.25 
z
" id="SimHei-48"/>
      <path d="M 16.796875 1.953125 
L 7.8125 1.953125 
L 7.8125 10.546875 
L 16.796875 10.546875 
z
" id="SimHei-46"/>
     </defs>
     <g transform="translate(353.29362 213.922889)scale(0.1 -0.1)">
      <use xlink:href="#SimHei-48"/>
      <use x="50" xlink:href="#SimHei-46"/>
      <use x="100" xlink:href="#SimHei-48"/>
     </g>
    </g>
   </g>
   <g id="xtick_2">
    <g id="line2d_3">
     <path d="M 323.731177 204.285852 
L 327.602954 205.603114 
" style="fill:none;stroke:#000000;stroke-linecap:square;stroke-width:0.8;"/>
    </g>
    <g id="text_3">
     <!-- 0.1 -->
     <g transform="translate(328.144519 223.516728)scale(0.1 -0.1)">
      <use xlink:href="#SimHei-48"/>
      <use x="50" xlink:href="#SimHei-46"/>
      <use x="100" xlink:href="#SimHei-49"/>
     </g>
    </g>
   </g>
   <g id="xtick_3">
    <g id="line2d_4">
     <path d="M 297.923603 213.943048 
L 301.798917 215.289776 
" style="fill:none;stroke:#000000;stroke-linecap:square;stroke-width:0.8;"/>
    </g>
    <g id="text_4">
     <!-- 0.2 -->
     <defs>
      <path d="M 4.6875 3.90625 
Q 5.078125 9.765625 10.15625 14.453125 
Q 15.234375 19.140625 23.046875 29.09375 
Q 30.859375 39.0625 33.203125 44.53125 
Q 35.546875 50 34.953125 53.90625 
Q 34.375 57.8125 31.25 60.34375 
Q 28.125 62.890625 24.015625 62.5 
Q 19.921875 62.109375 16.203125 59.375 
Q 12.5 56.640625 10.546875 51.171875 
L 3.125 52.34375 
Q 6.25 61.328125 11.125 65.421875 
Q 16.015625 69.53125 22.65625 69.921875 
Q 26.5625 70.3125 29.6875 69.71875 
Q 32.8125 69.140625 36.125 66.984375 
Q 39.453125 64.84375 41.59375 60.546875 
Q 43.75 56.25 43.15625 50.1875 
Q 42.578125 44.140625 37.109375 35.734375 
Q 31.640625 27.34375 16.015625 9.375 
L 44.140625 9.375 
L 44.140625 2.34375 
L 4.6875 2.34375 
z
" id="SimHei-50"/>
     </defs>
     <g transform="translate(302.435658 233.324104)scale(0.1 -0.1)">
      <use xlink:href="#SimHei-48"/>
      <use x="50" xlink:href="#SimHei-46"/>
      <use x="100" xlink:href="#SimHei-50"/>
     </g>
    </g>
   </g>
   <g id="xtick_4">
    <g id="line2d_5">
     <path d="M 271.535917 223.817322 
L 275.413949 225.194515 
" style="fill:none;stroke:#000000;stroke-linecap:square;stroke-width:0.8;"/>
    </g>
    <g id="text_5">
     <!-- 0.3 -->
     <defs>
      <path d="M 3.90625 19.140625 
L 10.9375 20.3125 
Q 12.5 15.234375 16.015625 11.90625 
Q 19.53125 8.59375 24.796875 8.78125 
Q 30.078125 8.984375 33.203125 13.078125 
Q 36.328125 17.1875 35.9375 22.453125 
Q 35.546875 27.734375 31.828125 30.65625 
Q 28.125 33.59375 19.921875 34.765625 
L 19.921875 39.84375 
Q 28.125 40.625 31.828125 44.140625 
Q 35.546875 47.65625 35.15625 53.3125 
Q 34.765625 58.984375 30.078125 61.515625 
Q 25.390625 64.0625 20.109375 62.109375 
Q 14.84375 60.15625 11.71875 51.171875 
L 4.6875 52.34375 
Q 7.03125 59.375 11.125 64.0625 
Q 15.234375 68.75 22.265625 69.53125 
Q 29.296875 70.3125 34.5625 67.765625 
Q 39.84375 65.234375 41.984375 59.953125 
Q 44.140625 54.6875 42.578125 48.4375 
Q 41.015625 42.1875 33.59375 37.5 
Q 39.0625 35.15625 41.984375 30.46875 
Q 44.921875 25.78125 43.9375 18.15625 
Q 42.96875 10.546875 37.109375 5.859375 
Q 31.25 1.171875 23.828125 1.359375 
Q 16.40625 1.5625 10.9375 6.046875 
Q 5.46875 10.546875 3.90625 19.140625 
z
" id="SimHei-51"/>
     </defs>
     <g transform="translate(276.148137 243.352225)scale(0.1 -0.1)">
      <use xlink:href="#SimHei-48"/>
      <use x="50" xlink:href="#SimHei-46"/>
      <use x="100" xlink:href="#SimHei-51"/>
     </g>
    </g>
   </g>
   <g id="xtick_5">
    <g id="line2d_6">
     <path d="M 244.548337 233.916075 
L 248.42821 235.32478 
" style="fill:none;stroke:#000000;stroke-linecap:square;stroke-width:0.8;"/>
    </g>
    <g id="text_6">
     <!-- 0.4 -->
     <defs>
      <path d="M 31.25 17.1875 
L 1.171875 17.1875 
L 1.171875 23.828125 
L 32.8125 69.53125 
L 38.671875 69.53125 
L 38.671875 23.828125 
L 48.046875 23.828125 
L 48.046875 17.1875 
L 38.671875 17.1875 
L 38.671875 2.34375 
L 31.25 2.34375 
z
M 31.25 23.828125 
L 31.25 54.6875 
L 9.375 23.828125 
z
" id="SimHei-52"/>
     </defs>
     <g transform="translate(249.262198 253.608631)scale(0.1 -0.1)">
      <use xlink:href="#SimHei-48"/>
      <use x="50" xlink:href="#SimHei-46"/>
      <use x="100" xlink:href="#SimHei-52"/>
     </g>
    </g>
   </g>
   <g id="xtick_6">
    <g id="line2d_7">
     <path d="M 216.940172 244.247052 
L 220.820943 245.688363 
" style="fill:none;stroke:#000000;stroke-linecap:square;stroke-width:0.8;"/>
    </g>
    <g id="text_7">
     <!-- 0.5 -->
     <defs>
      <path d="M 8.59375 20.703125 
Q 11.328125 10.15625 17.96875 8.984375 
Q 24.609375 7.8125 28.703125 10.34375 
Q 32.8125 12.890625 34.5625 16.984375 
Q 36.328125 21.09375 36.125 26.171875 
Q 35.9375 31.25 33.390625 34.765625 
Q 30.859375 38.28125 26.953125 39.453125 
Q 23.046875 40.625 18.15625 39.453125 
Q 13.28125 38.28125 10.15625 33.984375 
L 3.515625 34.765625 
Q 4.296875 37.109375 10.9375 68.359375 
L 41.796875 68.359375 
L 41.796875 61.328125 
L 16.796875 61.328125 
Q 14.84375 50.78125 12.890625 44.53125 
Q 18.75 47.265625 23.828125 47.0625 
Q 28.90625 46.875 33.59375 44.71875 
Q 38.28125 42.578125 40.421875 38.859375 
Q 42.578125 35.15625 43.546875 31.4375 
Q 44.53125 27.734375 44.328125 23.4375 
Q 44.140625 19.140625 42.578125 14.640625 
Q 41.015625 10.15625 37.890625 7.21875 
Q 34.765625 4.296875 30.265625 2.53125 
Q 25.78125 0.78125 19.921875 1.171875 
Q 14.0625 1.5625 8.78125 5.46875 
Q 3.515625 9.375 1.5625 18.75 
z
" id="SimHei-53"/>
     </defs>
     <g transform="translate(221.757172 264.101205)scale(0.1 -0.1)">
      <use xlink:href="#SimHei-48"/>
      <use x="50" xlink:href="#SimHei-46"/>
      <use x="100" xlink:href="#SimHei-53"/>
     </g>
    </g>
   </g>
  </g>
  <g id="axis3d_2">
   <g id="line2d_8">
    <path d="M 56.209763 191.865884 
L 207.778378 248.643025 
" style="fill:none;stroke:#000000;stroke-linecap:square;stroke-width:0.8;"/>
   </g>
   <g id="text_8">
    <!-- F2 -->
    <g transform="translate(101.124484 248.549816)scale(0.1 -0.1)">
     <use xlink:href="#SimHei-70"/>
     <use x="50" xlink:href="#SimHei-50"/>
    </g>
   </g>
   <g id="Line3DCollection_2">
    <path d="M 217.352308 25.125441 
L 216.893056 144.749824 
L 65.291323 195.267809 
" style="fill:none;stroke:#b0b0b0;stroke-width:0.8;"/>
    <path d="M 243.95304 32.621761 
L 242.199833 153.119938 
L 90.5283 204.721503 
" style="fill:none;stroke:#b0b0b0;stroke-width:0.8;"/>
    <path d="M 271.138334 40.282815 
L 268.035502 161.66498 
L 116.326363 214.385379 
" style="fill:none;stroke:#b0b0b0;stroke-width:0.8;"/>
    <path d="M 298.927674 48.114094 
L 294.41682 170.390493 
L 142.704435 224.266524 
" style="fill:none;stroke:#b0b0b0;stroke-width:0.8;"/>
    <path d="M 327.341418 56.121337 
L 321.361256 179.302256 
L 169.682299 234.37235 
" style="fill:none;stroke:#b0b0b0;stroke-width:0.8;"/>
    <path d="M 356.400851 64.310539 
L 348.887036 188.406296 
L 197.280647 244.710607 
" style="fill:none;stroke:#b0b0b0;stroke-width:0.8;"/>
   </g>
   <g id="xtick_7">
    <g id="line2d_9">
     <path d="M 66.579194 194.838654 
L 62.711719 196.127406 
" style="fill:none;stroke:#000000;stroke-linecap:square;stroke-width:0.8;"/>
    </g>
    <g id="text_9">
     <!-- 0.0 -->
     <g transform="translate(47.263137 213.922889)scale(0.1 -0.1)">
      <use xlink:href="#SimHei-48"/>
      <use x="50" xlink:href="#SimHei-46"/>
      <use x="100" xlink:href="#SimHei-48"/>
     </g>
    </g>
   </g>
   <g id="xtick_8">
    <g id="line2d_10">
     <path d="M 91.817588 204.282862 
L 87.945813 205.600115 
" style="fill:none;stroke:#000000;stroke-linecap:square;stroke-width:0.8;"/>
    </g>
    <g id="text_10">
     <!-- 0.1 -->
     <g transform="translate(72.404277 223.513691)scale(0.1 -0.1)">
      <use xlink:href="#SimHei-48"/>
      <use x="50" xlink:href="#SimHei-46"/>
      <use x="100" xlink:href="#SimHei-49"/>
     </g>
    </g>
   </g>
   <g id="xtick_9">
    <g id="line2d_11">
     <path d="M 117.616815 213.936934 
L 113.741502 215.283643 
" style="fill:none;stroke:#000000;stroke-linecap:square;stroke-width:0.8;"/>
    </g>
    <g id="text_11">
     <!-- 0.2 -->
     <g transform="translate(98.104822 233.317894)scale(0.1 -0.1)">
      <use xlink:href="#SimHei-48"/>
      <use x="50" xlink:href="#SimHei-46"/>
      <use x="100" xlink:href="#SimHei-50"/>
     </g>
    </g>
   </g>
   <g id="xtick_10">
    <g id="line2d_12">
     <path d="M 143.995778 223.807943 
L 140.117747 225.185108 
" style="fill:none;stroke:#000000;stroke-linecap:square;stroke-width:0.8;"/>
    </g>
    <g id="text_12">
     <!-- 0.3 -->
     <g transform="translate(124.383652 243.342701)scale(0.1 -0.1)">
      <use xlink:href="#SimHei-48"/>
      <use x="50" xlink:href="#SimHei-46"/>
      <use x="100" xlink:href="#SimHei-51"/>
     </g>
    </g>
   </g>
   <g id="xtick_11">
    <g id="line2d_13">
     <path d="M 170.974239 233.903285 
L 167.094368 235.31195 
" style="fill:none;stroke:#000000;stroke-linecap:square;stroke-width:0.8;"/>
    </g>
    <g id="text_13">
     <!-- 0.4 -->
     <g transform="translate(151.260506 253.595641)scale(0.1 -0.1)">
      <use xlink:href="#SimHei-48"/>
      <use x="50" xlink:href="#SimHei-46"/>
      <use x="100" xlink:href="#SimHei-52"/>
     </g>
    </g>
   </g>
   <g id="xtick_12">
    <g id="line2d_14">
     <path d="M 198.572871 244.230694 
L 194.692101 245.671953 
" style="fill:none;stroke:#000000;stroke-linecap:square;stroke-width:0.8;"/>
    </g>
    <g id="text_14">
     <!-- 0.5 -->
     <g transform="translate(178.756034 264.084591)scale(0.1 -0.1)">
      <use xlink:href="#SimHei-48"/>
      <use x="50" xlink:href="#SimHei-46"/>
      <use x="100" xlink:href="#SimHei-53"/>
     </g>
    </g>
   </g>
  </g>
  <g id="axis3d_3">
   <g id="line2d_15">
    <path d="M 56.209763 191.865884 
L 48.10449 67.424925 
" style="fill:none;stroke:#000000;stroke-linecap:square;stroke-width:0.8;"/>
   </g>
   <g id="text_15">
    <!-- F3 -->
    <g transform="translate(1.014357 134.07823)scale(0.1 -0.1)">
     <use xlink:href="#SimHei-70"/>
     <use x="50" xlink:href="#SimHei-51"/>
    </g>
   </g>
   <g id="Line3DCollection_3">
    <path d="M 56.05573 189.501 
L 207.778378 139.460888 
L 359.501027 189.501 
" style="fill:none;stroke:#b0b0b0;stroke-width:0.8;"/>
    <path d="M 54.562797 166.579876 
L 207.778378 117.4318 
L 360.993959 166.579876 
" style="fill:none;stroke:#b0b0b0;stroke-width:0.8;"/>
    <path d="M 53.040192 143.203187 
L 207.778378 94.991008 
L 362.516565 143.203187 
" style="fill:none;stroke:#b0b0b0;stroke-width:0.8;"/>
    <path d="M 51.487021 119.357215 
L 207.778378 72.126861 
L 364.069736 119.357215 
" style="fill:none;stroke:#b0b0b0;stroke-width:0.8;"/>
    <path d="M 49.902354 95.027685 
L 207.778378 48.827265 
L 365.654403 95.027685 
" style="fill:none;stroke:#b0b0b0;stroke-width:0.8;"/>
    <path d="M 48.285223 70.199738 
L 207.778378 25.079659 
L 367.271534 70.199738 
" style="fill:none;stroke:#b0b0b0;stroke-width:0.8;"/>
   </g>
   <g id="xtick_13">
    <g id="line2d_16">
     <path d="M 57.344407 189.075978 
L 53.474523 190.352316 
" style="fill:none;stroke:#000000;stroke-linecap:square;stroke-width:0.8;"/>
    </g>
    <g id="text_16">
     <!-- 0.0 -->
     <g transform="translate(27.800392 196.376)scale(0.1 -0.1)">
      <use xlink:href="#SimHei-48"/>
      <use x="50" xlink:href="#SimHei-46"/>
      <use x="100" xlink:href="#SimHei-48"/>
     </g>
    </g>
   </g>
   <g id="xtick_14">
    <g id="line2d_17">
     <path d="M 55.864899 166.162191 
L 51.954663 167.416506 
" style="fill:none;stroke:#000000;stroke-linecap:square;stroke-width:0.8;"/>
    </g>
    <g id="text_17">
     <!-- 0.1 -->
     <g transform="translate(26.10323 173.454876)scale(0.1 -0.1)">
      <use xlink:href="#SimHei-48"/>
      <use x="50" xlink:href="#SimHei-46"/>
      <use x="100" xlink:href="#SimHei-49"/>
     </g>
    </g>
   </g>
   <g id="xtick_15">
    <g id="line2d_18">
     <path d="M 54.355999 142.793217 
L 50.404565 144.024376 
" style="fill:none;stroke:#000000;stroke-linecap:square;stroke-width:0.8;"/>
    </g>
    <g id="text_18">
     <!-- 0.2 -->
     <g transform="translate(24.372335 150.078187)scale(0.1 -0.1)">
      <use xlink:href="#SimHei-48"/>
      <use x="50" xlink:href="#SimHei-46"/>
      <use x="100" xlink:href="#SimHei-50"/>
     </g>
    </g>
   </g>
   <g id="xtick_16">
    <g id="line2d_19">
     <path d="M 52.816825 118.955355 
L 48.823317 120.162171 
" style="fill:none;stroke:#000000;stroke-linecap:square;stroke-width:0.8;"/>
    </g>
    <g id="text_19">
     <!-- 0.3 -->
     <g transform="translate(22.606693 126.232215)scale(0.1 -0.1)">
      <use xlink:href="#SimHei-48"/>
      <use x="50" xlink:href="#SimHei-46"/>
      <use x="100" xlink:href="#SimHei-51"/>
     </g>
    </g>
   </g>
   <g id="xtick_17">
    <g id="line2d_20">
     <path d="M 51.246454 94.634351 
L 47.209971 95.815577 
" style="fill:none;stroke:#000000;stroke-linecap:square;stroke-width:0.8;"/>
    </g>
    <g id="text_20">
     <!-- 0.4 -->
     <g transform="translate(20.805247 101.902685)scale(0.1 -0.1)">
      <use xlink:href="#SimHei-48"/>
      <use x="50" xlink:href="#SimHei-46"/>
      <use x="100" xlink:href="#SimHei-52"/>
     </g>
    </g>
   </g>
   <g id="xtick_18">
    <g id="line2d_21">
     <path d="M 49.64393 69.815365 
L 45.563538 70.969694 
" style="fill:none;stroke:#000000;stroke-linecap:square;stroke-width:0.8;"/>
    </g>
    <g id="text_21">
     <!-- 0.5 -->
     <g transform="translate(18.966896 77.074738)scale(0.1 -0.1)">
      <use xlink:href="#SimHei-48"/>
      <use x="50" xlink:href="#SimHei-46"/>
      <use x="100" xlink:href="#SimHei-53"/>
     </g>
    </g>
   </g>
  </g>
  <g id="axes_1">
   <g id="line2d_22">
    <defs>
     <path d="M 0 1.5 
C 0.397805 1.5 0.77937 1.341951 1.06066 1.06066 
C 1.341951 0.77937 1.5 0.397805 1.5 0 
C 1.5 -0.397805 1.341951 -0.77937 1.06066 -1.06066 
C 0.77937 -1.341951 0.397805 -1.5 0 -1.5 
C -0.397805 -1.5 -0.77937 -1.341951 -1.06066 -1.06066 
C -1.341951 -0.77937 -1.5 -0.397805 -1.5 0 
C -1.5 0.397805 -1.341951 0.77937 -1.06066 1.06066 
C -0.77937 1.341951 -0.397805 1.5 0 1.5 
z
" id="m2f8dbce530" style="stroke:#4682b4;"/>
    </defs>
    <g clip-path="url(#p6a2f4a95fa)">
     <use style="fill:#4682b4;stroke:#4682b4;" x="207.797423" xlink:href="#m2f8dbce530" y="109.704361"/>
     <use style="fill:#4682b4;stroke:#4682b4;" x="185.859263" xlink:href="#m2f8dbce530" y="136.307295"/>
     <use style="fill:#4682b4;stroke:#4682b4;" x="141.635832" xlink:href="#m2f8dbce530" y="136.157767"/>
     <use style="fill:#4682b4;stroke:#4682b4;" x="175.193142" xlink:href="#m2f8dbce530" y="96.434967"/>
     <use style="fill:#4682b4;stroke:#4682b4;" x="185.962298" xlink:href="#m2f8dbce530" y="109.757118"/>
     <use style="fill:#4682b4;stroke:#4682b4;" x="229.755727" xlink:href="#m2f8dbce530" y="162.851898"/>
     <use style="fill:#4682b4;stroke:#4682b4;" x="251.862392" xlink:href="#m2f8dbce530" y="162.825802"/>
     <use style="fill:#4682b4;stroke:#4682b4;" x="318.088637" xlink:href="#m2f8dbce530" y="189.490739"/>
     <use style="fill:#4682b4;stroke:#4682b4;" x="196.760279" xlink:href="#m2f8dbce530" y="43.423141"/>
     <use style="fill:#4682b4;stroke:#4682b4;" x="240.928668" xlink:href="#m2f8dbce530" y="176.206709"/>
     <use style="fill:#4682b4;stroke:#4682b4;" x="318.006985" xlink:href="#m2f8dbce530" y="162.822286"/>
     <use style="fill:#4682b4;stroke:#4682b4;" x="196.659121" xlink:href="#m2f8dbce530" y="69.459129"/>
     <use style="fill:#4682b4;stroke:#4682b4;" x="107.814943" xlink:href="#m2f8dbce530" y="176.437126"/>
     <use style="fill:#4682b4;stroke:#4682b4;" x="295.452616" xlink:href="#m2f8dbce530" y="162.711807"/>
     <use style="fill:#4682b4;stroke:#4682b4;" x="218.832168" xlink:href="#m2f8dbce530" y="122.623243"/>
     <use style="fill:#4682b4;stroke:#4682b4;" x="185.833685" xlink:href="#m2f8dbce530" y="56.705235"/>
     <use style="fill:#4682b4;stroke:#4682b4;" x="207.816684" xlink:href="#m2f8dbce530" y="189.500651"/>
     <use style="fill:#4682b4;stroke:#4682b4;" x="197.006626" xlink:href="#m2f8dbce530" y="96.440907"/>
     <use style="fill:#4682b4;stroke:#4682b4;" x="163.792662" xlink:href="#m2f8dbce530" y="136.111804"/>
     <use style="fill:#4682b4;stroke:#4682b4;" x="151.961433" xlink:href="#m2f8dbce530" y="149.448175"/>
     <use style="fill:#4682b4;stroke:#4682b4;" x="97.553819" xlink:href="#m2f8dbce530" y="162.82852"/>
     <use style="fill:#4682b4;stroke:#4682b4;" x="163.749131" xlink:href="#m2f8dbce530" y="83.254091"/>
     <use style="fill:#4682b4;stroke:#4682b4;" x="207.773677" xlink:href="#m2f8dbce530" y="56.34575"/>
     <use style="fill:#4682b4;stroke:#4682b4;" x="163.435334" xlink:href="#m2f8dbce530" y="189.55738"/>
     <use style="fill:#4682b4;stroke:#4682b4;" x="218.919794" xlink:href="#m2f8dbce530" y="149.376589"/>
     <use style="fill:#4682b4;stroke:#4682b4;" x="307.196155" xlink:href="#m2f8dbce530" y="176.257266"/>
     <use style="fill:#4682b4;stroke:#4682b4;" x="329.168323" xlink:href="#m2f8dbce530" y="176.17393"/>
     <use style="fill:#4682b4;stroke:#4682b4;" x="340.190871" xlink:href="#m2f8dbce530" y="189.501"/>
     <use style="fill:#4682b4;stroke:#4682b4;" x="240.652372" xlink:href="#m2f8dbce530" y="69.828412"/>
     <use style="fill:#4682b4;stroke:#4682b4;" x="185.840657" xlink:href="#m2f8dbce530" y="83.081572"/>
     <use style="fill:#4682b4;stroke:#4682b4;" x="163.93126" xlink:href="#m2f8dbce530" y="109.747978"/>
     <use style="fill:#4682b4;stroke:#4682b4;" x="218.781386" xlink:href="#m2f8dbce530" y="43.529884"/>
     <use style="fill:#4682b4;stroke:#4682b4;" x="218.833831" xlink:href="#m2f8dbce530" y="96.401488"/>
     <use style="fill:#4682b4;stroke:#4682b4;" x="174.832907" xlink:href="#m2f8dbce530" y="69.924126"/>
     <use style="fill:#4682b4;stroke:#4682b4;" x="240.83221" xlink:href="#m2f8dbce530" y="96.418789"/>
     <use style="fill:#4682b4;stroke:#4682b4;" x="130.682217" xlink:href="#m2f8dbce530" y="149.841913"/>
     <use style="fill:#4682b4;stroke:#4682b4;" x="295.908279" xlink:href="#m2f8dbce530" y="136.284306"/>
     <use style="fill:#4682b4;stroke:#4682b4;" x="229.736333" xlink:href="#m2f8dbce530" y="189.481645"/>
     <use style="fill:#4682b4;stroke:#4682b4;" x="196.539768" xlink:href="#m2f8dbce530" y="176.206347"/>
     <use style="fill:#4682b4;stroke:#4682b4;" x="251.890788" xlink:href="#m2f8dbce530" y="189.489516"/>
     <use style="fill:#4682b4;stroke:#4682b4;" x="229.912732" xlink:href="#m2f8dbce530" y="82.851594"/>
     <use style="fill:#4682b4;stroke:#4682b4;" x="174.444905" xlink:href="#m2f8dbce530" y="176.191518"/>
     <use style="fill:#4682b4;stroke:#4682b4;" x="274.062275" xlink:href="#m2f8dbce530" y="163.174881"/>
     <use style="fill:#4682b4;stroke:#4682b4;" x="119.439745" xlink:href="#m2f8dbce530" y="189.546289"/>
     <use style="fill:#4682b4;stroke:#4682b4;" x="207.778378" xlink:href="#m2f8dbce530" y="30.362377"/>
     <use style="fill:#4682b4;stroke:#4682b4;" x="262.847651" xlink:href="#m2f8dbce530" y="149.649972"/>
     <use style="fill:#4682b4;stroke:#4682b4;" x="196.770642" xlink:href="#m2f8dbce530" y="149.993869"/>
     <use style="fill:#4682b4;stroke:#4682b4;" x="86.380722" xlink:href="#m2f8dbce530" y="176.261122"/>
     <use style="fill:#4682b4;stroke:#4682b4;" x="229.684975" xlink:href="#m2f8dbce530" y="136.40713"/>
     <use style="fill:#4682b4;stroke:#4682b4;" x="306.974606" xlink:href="#m2f8dbce530" y="149.562057"/>
     <use style="fill:#4682b4;stroke:#4682b4;" x="75.365885" xlink:href="#m2f8dbce530" y="189.501"/>
     <use style="fill:#4682b4;stroke:#4682b4;" x="252.002631" xlink:href="#m2f8dbce530" y="136.164462"/>
     <use style="fill:#4682b4;stroke:#4682b4;" x="207.799331" xlink:href="#m2f8dbce530" y="83.074177"/>
     <use style="fill:#4682b4;stroke:#4682b4;" x="174.737284" xlink:href="#m2f8dbce530" y="123.002386"/>
     <use style="fill:#4682b4;stroke:#4682b4;" x="218.792498" xlink:href="#m2f8dbce530" y="176.244596"/>
     <use style="fill:#4682b4;stroke:#4682b4;" x="284.884429" xlink:href="#m2f8dbce530" y="149.593328"/>
     <use style="fill:#4682b4;stroke:#4682b4;" x="262.745632" xlink:href="#m2f8dbce530" y="96.445859"/>
     <use style="fill:#4682b4;stroke:#4682b4;" x="207.823674" xlink:href="#m2f8dbce530" y="136.031208"/>
     <use style="fill:#4682b4;stroke:#4682b4;" x="229.947876" xlink:href="#m2f8dbce530" y="109.622834"/>
     <use style="fill:#4682b4;stroke:#4682b4;" x="141.544198" xlink:href="#m2f8dbce530" y="189.562678"/>
     <use style="fill:#4682b4;stroke:#4682b4;" x="284.782596" xlink:href="#m2f8dbce530" y="122.76966"/>
     <use style="fill:#4682b4;stroke:#4682b4;" x="152.797551" xlink:href="#m2f8dbce530" y="96.454826"/>
     <use style="fill:#4682b4;stroke:#4682b4;" x="96.726164" xlink:href="#m2f8dbce530" y="189.832254"/>
     <use style="fill:#4682b4;stroke:#4682b4;" x="119.503824" xlink:href="#m2f8dbce530" y="136.274989"/>
     <use style="fill:#4682b4;stroke:#4682b4;" x="273.998727" xlink:href="#m2f8dbce530" y="189.536999"/>
     <use style="fill:#4682b4;stroke:#4682b4;" x="273.797875" xlink:href="#m2f8dbce530" y="109.682926"/>
     <use style="fill:#4682b4;stroke:#4682b4;" x="196.577021" xlink:href="#m2f8dbce530" y="122.760812"/>
     <use style="fill:#4682b4;stroke:#4682b4;" x="207.78774" xlink:href="#m2f8dbce530" y="162.834991"/>
     <use style="fill:#4682b4;stroke:#4682b4;" x="141.748892" xlink:href="#m2f8dbce530" y="109.69559"/>
     <use style="fill:#4682b4;stroke:#4682b4;" x="119.89097" xlink:href="#m2f8dbce530" y="162.826948"/>
     <use style="fill:#4682b4;stroke:#4682b4;" x="185.855262" xlink:href="#m2f8dbce530" y="162.807863"/>
     <use style="fill:#4682b4;stroke:#4682b4;" x="152.656901" xlink:href="#m2f8dbce530" y="176.206442"/>
     <use style="fill:#4682b4;stroke:#4682b4;" x="251.742142" xlink:href="#m2f8dbce530" y="109.612401"/>
     <use style="fill:#4682b4;stroke:#4682b4;" x="296.189209" xlink:href="#m2f8dbce530" y="189.532187"/>
     <use style="fill:#4682b4;stroke:#4682b4;" x="141.559727" xlink:href="#m2f8dbce530" y="162.825914"/>
     <use style="fill:#4682b4;stroke:#4682b4;" x="251.762769" xlink:href="#m2f8dbce530" y="83.190751"/>
     <use style="fill:#4682b4;stroke:#4682b4;" x="240.812647" xlink:href="#m2f8dbce530" y="122.977485"/>
     <use style="fill:#4682b4;stroke:#4682b4;" x="174.726027" xlink:href="#m2f8dbce530" y="149.542221"/>
     <use style="fill:#4682b4;stroke:#4682b4;" x="229.719752" xlink:href="#m2f8dbce530" y="56.688581"/>
     <use style="fill:#4682b4;stroke:#4682b4;" x="130.587477" xlink:href="#m2f8dbce530" y="123.103569"/>
     <use style="fill:#4682b4;stroke:#4682b4;" x="108.421774" xlink:href="#m2f8dbce530" y="149.739615"/>
     <use style="fill:#4682b4;stroke:#4682b4;" x="262.67988" xlink:href="#m2f8dbce530" y="176.251958"/>
     <use style="fill:#4682b4;stroke:#4682b4;" x="285.031557" xlink:href="#m2f8dbce530" y="176.146423"/>
     <use style="fill:#4682b4;stroke:#4682b4;" x="152.578684" xlink:href="#m2f8dbce530" y="122.967658"/>
     <use style="fill:#4682b4;stroke:#4682b4;" x="185.644942" xlink:href="#m2f8dbce530" y="189.55224"/>
     <use style="fill:#4682b4;stroke:#4682b4;" x="130.447296" xlink:href="#m2f8dbce530" y="176.228039"/>
     <use style="fill:#4682b4;stroke:#4682b4;" x="240.698966" xlink:href="#m2f8dbce530" y="149.381808"/>
     <use style="fill:#4682b4;stroke:#4682b4;" x="218.718725" xlink:href="#m2f8dbce530" y="69.322863"/>
     <use style="fill:#4682b4;stroke:#4682b4;" x="274.079795" xlink:href="#m2f8dbce530" y="136.283858"/>
     <use style="fill:#4682b4;stroke:#4682b4;" x="163.835352" xlink:href="#m2f8dbce530" y="162.75055"/>
     <use style="fill:#4682b4;stroke:#4682b4;" x="262.808418" xlink:href="#m2f8dbce530" y="122.793678"/>
    </g>
   </g>
   <g id="legend_1">
    <g id="patch_6">
     <path d="M 298.8 28.45 
L 390.8 28.45 
Q 392.8 28.45 392.8 26.45 
L 392.8 14.2 
Q 392.8 12.2 390.8 12.2 
L 298.8 12.2 
Q 296.8 12.2 296.8 14.2 
L 296.8 26.45 
Q 296.8 28.45 298.8 28.45 
z
" style="fill:#ffffff;opacity:0.8;stroke:#cccccc;stroke-linejoin:miter;"/>
    </g>
    <g id="line2d_23"/>
    <g id="line2d_24">
     <g>
      <use style="fill:#4682b4;stroke:#4682b4;" x="310.8" xlink:href="#m2f8dbce530" y="19.7"/>
     </g>
    </g>
    <g id="text_22">
     <!-- Pareto Front -->
     <defs>
      <path d="M 46.09375 48.4375 
Q 46.09375 39.0625 40.625 33.59375 
Q 35.15625 28.125 25.390625 28.125 
L 14.0625 28.125 
L 14.0625 1.953125 
L 5.078125 1.953125 
L 5.078125 68.75 
L 25.390625 68.75 
Q 35.15625 68.75 40.625 63.28125 
Q 46.09375 57.8125 46.09375 48.4375 
z
M 37.109375 48.4375 
Q 37.109375 55.859375 33.59375 58.59375 
Q 30.078125 61.328125 23.046875 61.328125 
L 14.0625 61.328125 
L 14.0625 35.546875 
L 23.046875 35.546875 
Q 30.078125 35.546875 33.59375 38.28125 
Q 37.109375 41.015625 37.109375 48.4375 
z
" id="SimHei-80"/>
      <path d="M 44.921875 1.953125 
L 35.546875 1.953125 
Q 34.765625 2.734375 34.375 4.09375 
Q 33.984375 5.46875 33.984375 7.421875 
Q 31.25 4.296875 27.34375 2.734375 
Q 23.4375 1.171875 19.140625 1.171875 
Q 12.890625 1.171875 8.59375 4.296875 
Q 4.296875 7.421875 4.296875 13.28125 
Q 4.296875 19.140625 8.203125 22.65625 
Q 12.109375 26.171875 20.3125 27.34375 
Q 25.78125 28.125 29.875 29.296875 
Q 33.984375 30.46875 33.984375 32.421875 
Q 33.984375 34.765625 32.21875 37.109375 
Q 30.46875 39.453125 24.609375 39.453125 
Q 19.921875 39.453125 17.765625 37.6875 
Q 15.625 35.9375 14.84375 32.8125 
L 6.25 32.8125 
Q 7.03125 39.0625 11.90625 42.765625 
Q 16.796875 46.484375 24.609375 46.484375 
Q 33.203125 46.484375 37.5 42.578125 
Q 41.796875 38.671875 41.796875 31.640625 
L 41.796875 10.15625 
Q 41.796875 7.8125 42.578125 5.859375 
Q 43.359375 3.90625 44.921875 1.953125 
z
M 33.984375 16.40625 
L 33.984375 24.21875 
Q 31.640625 23.4375 29.484375 22.84375 
Q 27.34375 22.265625 22.265625 21.484375 
Q 16.40625 20.703125 14.640625 18.75 
Q 12.890625 16.796875 12.890625 14.0625 
Q 12.890625 11.71875 14.640625 9.953125 
Q 16.40625 8.203125 19.921875 8.203125 
Q 23.4375 8.203125 27.53125 10.15625 
Q 31.640625 12.109375 33.984375 16.40625 
z
" id="SimHei-97"/>
      <path d="M 39.0625 37.890625 
Q 31.640625 39.0625 26.5625 35.734375 
Q 21.484375 32.421875 17.96875 24.21875 
L 17.96875 1.953125 
L 10.15625 1.953125 
L 10.15625 45.703125 
L 17.96875 45.703125 
L 17.96875 34.375 
Q 21.484375 40.625 26.75 43.546875 
Q 32.03125 46.484375 39.0625 46.484375 
z
" id="SimHei-114"/>
      <path d="M 44.53125 16.796875 
Q 43.75 9.765625 38.28125 5.46875 
Q 32.8125 1.171875 25.390625 1.171875 
Q 16.015625 1.171875 9.953125 7.21875 
Q 3.90625 13.28125 3.90625 23.828125 
Q 3.90625 34.375 9.953125 40.421875 
Q 16.015625 46.484375 25.390625 46.484375 
Q 33.59375 46.484375 38.859375 41.203125 
Q 44.140625 35.9375 44.140625 23.828125 
L 12.5 23.828125 
Q 12.5 15.234375 16.203125 11.71875 
Q 19.921875 8.203125 25.390625 8.203125 
Q 29.6875 8.203125 32.421875 10.34375 
Q 35.15625 12.5 35.9375 16.796875 
z
M 35.15625 30.078125 
Q 34.375 35.546875 31.640625 37.6875 
Q 28.90625 39.84375 24.609375 39.84375 
Q 20.703125 39.84375 17.578125 37.6875 
Q 14.453125 35.546875 12.890625 30.078125 
z
" id="SimHei-101"/>
      <path d="M 42.96875 3.125 
Q 41.015625 2.34375 38.46875 1.75 
Q 35.9375 1.171875 31.640625 1.171875 
Q 24.609375 1.171875 20.3125 5.078125 
Q 16.015625 8.984375 16.015625 16.015625 
L 16.015625 39.453125 
L 2.734375 39.453125 
L 2.734375 45.703125 
L 16.015625 45.703125 
L 16.015625 60.9375 
L 23.828125 60.9375 
L 23.828125 45.703125 
L 39.84375 45.703125 
L 39.84375 39.453125 
L 23.828125 39.453125 
L 23.828125 15.625 
Q 23.828125 12.5 25.390625 10.34375 
Q 26.953125 8.203125 31.25 8.203125 
Q 35.546875 8.203125 38.28125 8.984375 
Q 41.015625 9.765625 42.96875 10.9375 
z
" id="SimHei-116"/>
      <path d="M 45.703125 23.828125 
Q 45.703125 13.671875 39.453125 7.421875 
Q 33.203125 1.171875 24.609375 1.171875 
Q 16.015625 1.171875 9.765625 7.421875 
Q 3.515625 13.671875 3.515625 23.828125 
Q 3.515625 33.984375 9.765625 40.234375 
Q 16.015625 46.484375 24.609375 46.484375 
Q 33.203125 46.484375 39.453125 40.234375 
Q 45.703125 33.984375 45.703125 23.828125 
z
M 37.109375 23.828125 
Q 37.109375 31.640625 33.203125 35.546875 
Q 29.296875 39.453125 24.609375 39.453125 
Q 19.921875 39.453125 16.015625 35.546875 
Q 12.109375 31.640625 12.109375 23.828125 
Q 12.109375 16.015625 16.015625 12.109375 
Q 19.921875 8.203125 24.609375 8.203125 
Q 29.296875 8.203125 33.203125 12.109375 
Q 37.109375 16.015625 37.109375 23.828125 
z
" id="SimHei-111"/>
      <path id="SimHei-32"/>
      <path d="M 43.75 1.953125 
L 35.9375 1.953125 
L 35.9375 30.078125 
Q 35.9375 34.765625 33.59375 37.5 
Q 31.25 40.234375 27.34375 40.234375 
Q 22.265625 40.234375 17.765625 34.953125 
Q 13.28125 29.6875 13.28125 21.875 
L 13.28125 1.953125 
L 5.46875 1.953125 
L 5.46875 45.703125 
L 13.28125 45.703125 
L 13.28125 37.5 
Q 16.40625 41.796875 20.109375 44.140625 
Q 23.828125 46.484375 29.6875 46.484375 
Q 36.71875 46.484375 40.234375 42.578125 
Q 43.75 38.671875 43.75 32.8125 
z
" id="SimHei-110"/>
     </defs>
     <g transform="translate(328.8 23.2)scale(0.1 -0.1)">
      <use xlink:href="#SimHei-80"/>
      <use x="50" xlink:href="#SimHei-97"/>
      <use x="100" xlink:href="#SimHei-114"/>
      <use x="150" xlink:href="#SimHei-101"/>
      <use x="200" xlink:href="#SimHei-116"/>
      <use x="250" xlink:href="#SimHei-111"/>
      <use x="300" xlink:href="#SimHei-32"/>
      <use x="350" xlink:href="#SimHei-70"/>
      <use x="400" xlink:href="#SimHei-114"/>
      <use x="450" xlink:href="#SimHei-111"/>
      <use x="500" xlink:href="#SimHei-110"/>
      <use x="550" xlink:href="#SimHei-116"/>
     </g>
    </g>
   </g>
  </g>
 </g>
 <defs>
  <clipPath id="p6a2f4a95fa">
   <rect height="255.024" width="390.6" x="7.2" y="7.2"/>
  </clipPath>
 </defs>
</svg>
